<svg data-v-2cb57da0="" version="1.0" xmlns="http://www.w3.org/2000/svg" xmlns:xlink="http://www.w3.org/1999/xlink" width="100%" height="100%" viewBox="0 0 340.000000 250.000000" preserveAspectRatio="xMidYMid meet" color-interpolation-filters="sRGB" style="margin: auto;">
  <rect data-v-2cb57da0="" x="0" y="0" width="100%" height="100%" fill="#333" fill-opacity="0" class="background"></rect>
  <!---->
  <g data-v-2cb57da0="" fill="#000" class="icon-text-wrapper icon-svg-group iconsvg" transform="translate(66.30000305175781,101.43288040161133)">
    <g class="iconsvg-imagesvg" transform="translate(0,0)">
      <g>
        <rect fill="#000" fill-opacity="0" stroke-width="2" x="0" y="0" width="60" height="47.134238310708895" class="image-rect"></rect> <svg filter="" x="0" y="0" width="60" height="47.134238310708895" filtersec="colorsf7852597987" class="image-svg-svg primary"><svg xmlns="http://www.w3.org/2000/svg" xmlns:xlink="http://www.w3.org/1999/xlink" xml:space="preserve" version="1.1" viewBox="0 -0.27687740325927734 304 238.8126678466797" x="0px" y="0px" fill-rule="evenodd" clip-rule="evenodd">
            <defs></defs>
            <g fill="#000">
              <path d="M2 149l52 -69 11 11 41 -61 26 46 12 -18 38 64 8 -12 39 55 8 -15 67 32 -18 4 -45 -18 -9 16 -41 -51 -13 18 -33 -70c0,0 -12,34 -13,32 -1,-2 -27,-59 -27,-59l-42 66 -9 -25 -28 49 -24 5z"></path>
              <path d="M183 22c5,-10 15,-8 20,1 6,-10 10,-10 18,-3l-2 3c-9,-9 -11,-3 -15,7 -3,-7 -12,-19 -17,-6l-4 -2z"></path>
              <path d="M224 31c4,-8 13,-7 17,1 5,-9 9,-9 16,-3l-2 3c-8,-8 -9,-3 -13,6 -3,-6 -10,-16 -15,-5l-3 -2z"></path>
              <path d="M221 6c3,-8 12,-7 16,0 5,-8 9,-8 16,-2l-3 2c-8,-7 -9,-2 -13,6 -2,-5 -9,-15 -13,-5l-3 -1z"></path>
              <path d="M0 161c21,-2 170,-7 173,15 5,27 -81,31 -82,38 -2,14 148,-1 164,-8l34 11c-22,8 -257,48 -233,-7 15,-16 89,-15 92,-32 1,-17 -115,-10 -148,-17l0 0z"></path>
            </g>
          </svg></svg>
        <defs>
          <filter id="colors1095268353">
            <feColorMatrix type="matrix" values="0 0 0 0 0.99609375  0 0 0 0 0.99609375  0 0 0 0 0.99609375  0 0 0 1 0" class="icon-fecolormatrix"></feColorMatrix>
          </filter>
          <filter id="colorsf7852597987">
            <feColorMatrix type="matrix" values="0 0 0 0 0.99609375  0 0 0 0 0.99609375  0 0 0 0 0.99609375  0 0 0 1 0" class="icon-fecolormatrix"></feColorMatrix>
          </filter>
          <filter id="colorsb8378849045">
            <feColorMatrix type="matrix" values="0 0 0 0 0  0 0 0 0 0  0 0 0 0 0  0 0 0 1 0" class="icon-fecolormatrix"></feColorMatrix>
          </filter>
        </defs>
      </g>
    </g>
    <g transform="translate(67,3.183786392211914)">
      <g data-gra="path-name" fill-rule="" class="tp-name iconsvg-namesvg" fill="#000">
        <g transform="scale(1)" fill="#000">
          <g fill="#000">
            <path d="M27.5-27.35L27.5-27.25Q27.7-27.35 28.1-27.45L28.1-27.45Q28.75-27.6 29.65-27.65 30.55-27.7 31.05-27.75L31.05-27.75 31.8-27.7 34.75-27.75 36.55-27.8 38.85-27.95Q39.2-28 39.9-28L39.9-28Q40.1-28 40.85-28.05 41.6-28.1 42.2-28.3L42.2-28.3Q42.6-28.4 43.13-28.48 43.65-28.55 44-28.65L44-28.65Q44.5-28.8 45.1-28.88 45.7-28.95 45.95-29L45.95-29Q46-29 46.18-29.03 46.35-29.05 46.35-29.3L46.35-29.3Q46.35-29.35 46.45-29.45L46.45-29.45Q46.7-29.65 46.7-29.9L46.7-29.9Q46.7-30.25 46.35-30.4L46.35-30.4 46.2-30.5 45.6-30.85Q45.15-31 45.1-31.4L45.1-31.4 44.95-31.85 45.3-32.1Q45.35-32.15 45.35-32.3L45.35-32.3Q44.9-32.45 44.75-32.9L44.75-32.9Q44.65-33.05 44.65-33.18 44.65-33.3 44.8-33.45L44.8-33.45 45.35-33.75Q46.1-34.35 46.05-34.3L46.05-34.3Q46.25-34.5 46.4-34.9L46.4-34.9Q46.45-35 46.48-35.15 46.5-35.3 46.55-35.4L46.55-35.4Q46.25-35.5 46.1-35.45L46.1-35.45Q45.55-35.4 45.15-35.3 44.75-35.2 44.45-35.15L44.45-35.15Q44.3-35.1 44.13-35.13 43.95-35.15 43.8-35.1L43.8-35.1Q43.3-34.95 42.65-34.95L42.65-34.95Q42.35-34.95 41.95-34.98 41.55-35 41-34.95L41-34.95Q40.45-34.9 39.35-34.9L39.35-34.9 38.3-34.75Q37.1-34.65 36.5-34.55L36.5-34.55Q36.15-34.5 35.65-34.45 35.15-34.4 34.45-34.4L34.45-34.4 31.55-34.25 29.4-34.05Q29.25-34 29.03-33.95 28.8-33.9 28.5-33.9L28.5-33.9Q28.15-33.85 27.55-33.85L27.55-33.85 23.85-33.7Q21.95-33.6 20.95-33.5L20.95-33.5 20.25-33.45Q20.1-33.4 19.95-33.43 19.8-33.45 19.7-33.45L19.7-33.45 16.9-33.15 15.2-33 13.95-32.85 12.65-32.7Q11.9-32.65 10.4-32.45L10.4-32.45Q10.25-32.45 10.15-32.65L10.15-32.65Q10.05-32.75 9.98-32.9 9.9-33.05 9.75-33.2L9.75-33.2Q9.65-33.35 9.15-33.85L9.15-33.85Q9-34.05 8.7-34.05L8.7-34.05Q8.45-34.05 8.3-33.9L8.3-33.9Q7.9-33.3 7.65-33.05L7.65-33.05Q7.45-32.9 7.33-32.65 7.2-32.4 7.15-32.3L7.15-32.3Q7.1-32.2 7.05-32.05 7-31.9 6.95-31.8L6.95-31.8 6.65-31.3Q6.6-31.2 6.45-31.05 6.3-30.9 6.3-30.7L6.3-30.7Q6.3-30.45 6.5-30.15L6.5-30.15 7.05-29.5Q7.4-29.3 7.55-29.13 7.7-28.95 7.6-28.65L7.6-28.65Q7.6-28.45 7.65-28.4L7.65-28.4 7.65-27.6Q7.65-26.95 7.6-26.5 7.55-26.05 7.5-25.75L7.5-25.75Q7.5-25.6 7.45-25.45 7.4-25.3 7.4-25.15L7.4-25.15 7.45-24.55Q7.45-23.95 7.25-22.85L7.25-22.85 7.25-22.75Q7.25-22.3 7.3-22.1L7.3-22.1 7.3-21.45 7.3-20.45 7.3-20.1Q7.25-19.85 7.25-19.3L7.25-19.3 7.25-19.05 7.2-18Q7.2-17.45 7.3-16.45L7.3-16.45 7.25-15.95Q7.25-14.55 7.2-13.85L7.2-13.85 7.25-13.7 7.3-13.25 7.25-11.55 7.25-11.3 7.05-9.5Q6.95-7.8 6.85-7L6.85-7Q6.85-6.45 6.8-6.08 6.75-5.7 6.7-5.45L6.7-5.45Q6.65-5.3 6.68-5.15 6.7-5 6.65-4.85L6.65-4.85Q6.6-4.15 6.4-2.85L6.4-2.85Q6.3-2.8 6.08-2.68 5.85-2.55 5.7-2.5L5.7-2.5Q5.45-2.45 5.25-2.48 5.05-2.5 4.9-2.5L4.9-2.5Q4.65-1.95 4.05-1.95L4.05-1.95Q3.45-1.95 2.8-2.45L2.8-2.45 2.8-2.15 2.3-2.25 2.35-2.1Q2.35-2 2.33-1.83 2.3-1.65 2.4-1.55L2.4-1.55Q2.5-1.45 2.58-1.25 2.65-1.05 2.7-0.95L2.7-0.95 2.5-0.85Q2.4-0.85 2.25-0.9 2.1-0.95 2-0.95L2-0.95Q2.1-0.85 2.4-0.6 2.7-0.35 2.75 0L2.75 0Q2.75 0.1 2.85 0.1L2.85 0.1Q3.1 0.35 2.95 0.75L2.95 0.75Q2.8 1.05 2.8 1.4L2.8 1.4Q2.8 1.7 2.9 2.3L2.9 2.3Q2.9 2.65 2.7 2.8L2.7 2.8Q2.6 2.85 2.2 3.25L2.2 3.25 3.4 3.7Q3.7 3.8 3.55 4L3.55 4Q3.4 4.2 3.43 4.3 3.45 4.4 3.7 4.5L3.7 4.5 4.6 4.9Q4.9 5 5.05 5L5.05 5Q5.2 5 5.5 4.9L5.5 4.9Q5.6 4.9 5.75 4.85 5.9 4.8 6 4.8L6 4.8Q6.3 4.8 6.45 5.1L6.45 5.1 6.6 5.1Q6.85 5.3 7.25 5.3L7.25 5.3Q7.6 5.3 7.9 5.15L7.9 5.15 8.4 4.95 9.55 4.5Q9.65 4.5 9.7 4.45L9.7 4.45 10.25 3.4Q10.3 3.3 10.43 3.05 10.55 2.8 10.85 2.7L10.85 2.7Q11.3 2.55 11.3 2.05L11.3 2.05 11.3 0.75 11.3-2.25Q11.3-2.85 11.4-4.05L11.4-4.05 11.45-5.65 11.45-5.95Q11.45-6.5 11.4-6.75L11.4-6.75Q11.4-7.05 11.35-7.33 11.3-7.6 11.3-7.85L11.3-7.85Q11.25-8.4 11.25-9.5L11.25-9.5 11.25-11.15 11.25-11.85 11.2-13Q11.15-13.75 11.15-15.25L11.15-15.25 11.15-16.75 11.15-18.65Q11.15-19.3 11.05-20.5L11.05-20.5 10.9-22.75Q10.9-23 11-23.5L11-23.5Q11-23.65 11.05-23.75 11.1-23.85 11.15-23.95L11.15-23.95Q11.65-23.45 11.65-23.45L11.65-23.45Q11.65-23.6 11.55-23.7L11.55-23.7Q11.4-23.9 11.15-24.18 10.9-24.45 10.9-24.8L10.9-24.8 10.85-26.05Q10.75-26.35 11.05-26.4L11.05-26.4Q11.9-26.6 12.15-26.65L12.15-26.65 12.9-26.65Q14.4-26.55 15.4-26.8L15.4-26.8Q15.65-26.85 15.9-26.83 16.15-26.8 16.4-26.85L16.4-26.85 17.15-26.85 17.35-26.85 18.25-26.9 19.05-27.05 20-27.05 20.05-26.9Q20.15-27.2 20.5-27.1L20.5-27.1Q20.7-27 20.8-27L20.8-27 21-27.05 21.15-27.2 21.5-27.2 23.4-27.25Q23.8-27.35 23.95-27.35L23.95-27.35 24.8-27.35 27-27.4 27.5-27.35ZM36.25-2.6Q36.5-2.6 36.5-2.7L36.5-2.7Q36.65-2.85 36.85-3 37.05-3.15 37.2-3.25L37.2-3.25Q37.5-3.45 37.4-3.8L37.4-3.8Q37.3-4.2 37.4-4.3L37.4-4.3Q37.5-4.45 38.25-5.05L38.25-5.05Q38.25-5.05 38.27-5.08 38.3-5.1 38.3-5.1L38.3-5.1Q38.5-5.05 38.95-5.05L38.95-5.05Q39.05-4.95 39.15-5.05L39.15-5.05Q39.75-5.45 40.05-5.7L40.05-5.7Q40.15-5.7 40.15-5.9L40.15-5.9Q40.2-6.2 40.28-6.78 40.35-7.35 40.45-7.75L40.45-7.75Q40.65-8.6 40.65-9.75L40.65-9.75Q40.65-11.05 40.55-11.7L40.55-11.7Q40.5-12.25 40.2-13.45L40.2-13.45Q40-14.25 39.75-14.5L39.75-14.5Q39.4-14.9 38.9-15L38.9-15Q38.3-15.15 37.1-15.25L37.1-15.25Q36.05-15.4 34.95-15.4L34.95-15.4 33.05-15.4 30.9-15.3Q29.6-15.1 28.95-15.05L28.95-15.05 27.2-14.8Q27.15-14.8 26.4-14.65L26.4-14.65Q25.4-14.55 24.9-14.4L24.9-14.4Q24.55-14.25 23.85-14.05L23.85-14.05Q23.75-14.05 23.58-14.03 23.4-14 23.25-14.15L23.25-14.15Q23.2-14.25 22.95-14.25L22.95-14.25 22.2-14.6Q22.15-14.6 22.03-14.65 21.9-14.7 21.85-14.6L21.85-14.6Q21.8-14.55 21.65-14.55L21.65-14.55 21.45-14.55Q21.2-14.55 21.05-14.4L21.05-14.4Q21-14.4 20.9-14.45 20.8-14.5 20.75-14.45L20.75-14.45Q20.25-14.1 20.2-13.95L20.2-13.95Q20.05-13.55 19.95-12.7L19.95-12.7Q19.9-12.6 19.93-12.53 19.95-12.45 19.95-12.4L19.95-12.4Q19.9-12.2 19.85-11.98 19.8-11.75 19.7-11.55L19.7-11.55 19.55-11.3Q19.4-11.15 19.43-10.98 19.45-10.8 19.6-10.7L19.6-10.7Q19.7-10.6 19.7-10.4L19.7-10.4Q19.75-10.35 19.73-10.28 19.7-10.2 19.7-10.15L19.7-10.15 19.7-8.5Q19.7-8.15 19.68-7.55 19.65-6.95 19.7-6.5L19.7-6.5Q19.75-6.1 19.75-5.3L19.75-5.3 20-3.75 20.35-2.35Q20.4-2.15 20.4-1.65L20.4-1.65Q20.4-1.55 20.4-1.45 20.4-1.35 20.5-1.3L20.5-1.3Q20.6-1.25 20.7-1.2 20.8-1.15 20.95-1.15L20.95-1.15Q21.15-1.2 21.3-1.05L21.3-1.05 22.2-0.1Q22.25 0 22.33 0.13 22.4 0.25 22.5 0.4L22.5 0.4Q23.2 0.65 23.45 0.75L23.45 0.75Q23.65 0.25 24.15 0.45L24.15 0.45Q24.25 0.5 24.4 0.5L24.4 0.5Q24.6 0.35 25.1 0.45L25.1 0.45Q25.2 0.5 25.3 0.48 25.4 0.45 25.45 0.4L25.45 0.4Q25.85 0 26.3-0.15L26.3-0.15 26.75-0.2 28.7-0.5Q29.05-0.55 29.38-0.53 29.7-0.5 30.05-0.55L30.05-0.55 31.6-0.7Q33.2-0.8 33.9-0.9L33.9-0.9Q34.2-0.95 35.05-1.3L35.05-1.3Q35.2-1.3 35.3-1.55L35.3-1.55Q35.45-1.95 35.8-1.95L35.8-1.95Q35.9-1.95 35.95-2L35.95-2Q36.15-2.05 36.25-2.23 36.35-2.4 36.25-2.6L36.25-2.6ZM34.3-5.35L32.05-5.15 30.55-5Q29.55-4.9 29.05-4.8L29.05-4.8Q27.45-4.5 26.65-4.3L26.65-4.3 25.25-3.95Q25.1-3.9 24.9-3.9 24.7-3.9 24.4-3.8L24.4-3.8 23.65-3.6 23.8-4.45Q23.8-5.35 23.9-5.8L23.9-5.8Q24-6.4 24.3-8L24.3-8Q24.35-8.15 24.35-8.4L24.35-8.4Q24.45-8.8 24.85-8.9L24.85-8.9Q24.95-8.9 25.18-8.95 25.4-9 25.6-9.1L25.6-9.1Q25.75-9.15 26-9.15 26.25-9.15 26.4-9.2L26.4-9.2Q26.5-9.2 26.5-9.2L26.5-9.2Q26.7-9.35 27-9.33 27.3-9.3 27.45-9.3L27.45-9.3Q27.85-9.4 28.75-9.5L28.75-9.5Q29.35-9.55 30.9-9.75L30.9-9.75Q31.4-9.8 32.4-10L32.4-10Q32.7-10 32.85-9.95L32.85-9.95Q32.9-9.95 32.95-9.9 33-9.85 33-9.75L33-9.75Q33-9.55 33.1-8.55 33.2-7.55 33.55-6.75L33.55-6.75Q33.7-6.45 34.1-5.85L34.1-5.85 34.35-5.45Q34.3-5.45 34.3-5.35L34.3-5.35ZM71.2-23L71.55-23.15 71.8-23.4Q71.8-23.4 71.6-23.6L71.6-23.6 71-23.85Q70.4-24.2 69.8-24.2L69.8-24.2Q67.7-24.3 66.75-24.3L66.75-24.3Q65.95-24.3 64.25-24.2L64.25-24.2Q63.95-24.15 64.1-24.35L64.1-24.35Q64.2-25.15 64.2-25.5L64.2-25.5Q64.3-26.1 64.4-26.35L64.4-26.35Q64.4-26.5 64.5-26.5L64.5-26.5 65.1-26.55 65.25-26.55 66.1-26.7 66.4-26.7Q66.7-26.7 66.8-26.8L66.8-26.8Q66.9-26.9 67.05-26.9L67.05-26.9Q68.25-27 68.8-27.1L68.8-27.1 70.45-27.35Q70.5-27.35 70.67-27.4 70.85-27.45 70.8-27.7L70.8-27.7Q70.8-27.75 70.9-27.75L70.9-27.75Q70.95-27.85 71.2-28.1L71.2-28.1 71.05-28.25 71.4-28.7Q71.45-28.75 71.47-28.83 71.5-28.9 71.6-28.95L71.6-28.95Q71.75-29.15 71.95-29.25L71.95-29.25Q72.05-29.35 72.05-29.55 72.05-29.75 71.95-29.9L71.95-29.9Q71.9-30.1 71.92-30.18 71.95-30.25 72.1-30.35L72.1-30.35Q72.25-30.5 72.25-30.6L72.25-30.6Q72.25-30.7 72.3-30.85 72.35-31 72.25-31.1L72.25-31.1 72.25-31.15Q72.4-31.55 72-31.45L72-31.45 71.75-31.45Q71.25-31.55 71.05-31.55L71.05-31.55 69.6-31.55Q68.65-31.55 68.15-31.5L68.15-31.5Q67.3-31.5 65.9-31.4L65.9-31.4 64.75-31.25Q64.7-31.2 64.63-31.28 64.55-31.35 64.55-31.45L64.55-31.45Q64.5-31.6 64.5-31.95L64.5-31.95Q64.5-32.35 64.45-32.55L64.45-32.55Q64.4-33 63.95-33.9L63.95-33.9Q63.8-34.05 63.75-34.05L63.75-34.05Q63.25-34.25 62.75-34.7L62.75-34.7Q62.6-34.6 62.4-34.52 62.2-34.45 62.05-34.35L62.05-34.35Q61.8-34.2 61.67-34.05 61.55-33.9 61.6-33.65L61.6-33.65 61.65-33.3Q61.6-32.9 61.4-32.2L61.4-32.2Q61.4-32.15 61.35-32.1 61.3-32.05 61.25-32.05L61.25-32.05Q61.25-32 61.35-31.9 61.45-31.8 61.35-31.65L61.35-31.65Q61.3-31.55 61.3-31.2L61.3-31.2Q61.3-31 61.23-30.93 61.15-30.85 61-30.85L61-30.85Q60.55-30.75 59.95-30.73 59.35-30.7 58.95-30.55L58.95-30.55Q58.75-30.45 58.4-30.4 58.05-30.35 57.8-30.3L57.8-30.3 55.65-30Q55.25-29.9 55-29.9L55-29.9Q54.95-29.9 54.8-29.93 54.65-29.95 54.55-29.85L54.55-29.85 54.3-29.75Q54.15-29.75 54.05-29.8 53.95-29.85 53.85-29.9L53.85-29.9 53.5-29.95Q53.35-29.95 53.05-29.8L53.05-29.8Q52.75-29.75 52.75-29.5L52.75-29.5Q52.75-29.4 52.8-29.33 52.85-29.25 52.9-29.2L52.9-29.2Q53.05-29.2 53.05-29.1L53.05-29.1Q53.2-28.9 53.3-28.4L53.3-28.4 53.35-28.2Q53.35-27.95 53.15-27.55L53.15-27.55Q53.1-27.5 53.1-27.35L53.1-27.35Q53.1-27 53.3-26.8L53.3-26.8Q53.35-26.8 53.4-26.73 53.45-26.65 53.4-26.6L53.4-26.6 53.4-26.55Q53.4-26.4 53.52-26.33 53.65-26.25 53.7-26.15L53.7-26.15Q53.85-26 53.85-25.95L53.85-25.95Q53.85-25.6 53.8-25.4L53.8-25.4Q53.75-25.05 54.1-25.05L54.1-25.05 54.6-25.2 56.45-25.45Q56.75-25.55 56.95-25.55L56.95-25.55 58-25.65 60.05-25.95 60.85-26.15Q60.95-26.2 61.08-26.13 61.2-26.05 61.2-25.95L61.2-25.95 61.2-25 61.2-24.7 61.2-24.15 61.2-23.95Q61.2-23.7 61.13-23.65 61.05-23.6 60.8-23.6L60.8-23.6Q60.55-23.6 60.05-23.5L60.05-23.5 58.65-23.25 57.25-23.1 55.95-22.85 55.45-22.7Q55.3-22.55 55.2-22.55L55.2-22.55Q55.1-22.55 54.9-22.5 54.7-22.45 54.55-22.5L54.55-22.5Q54.55-22.5 54.52-22.48 54.5-22.45 54.5-22.45L54.5-22.45Q54.3-22.45 54.2-22.4L54.2-22.4 53.3-22.2Q53.2-22.35 52.85-22.35L52.85-22.35Q52.5-22.35 52.3-22.3L52.3-22.3Q52.25-22.3 52.15-22.2L52.15-22.2 51.95-21.8 51.85-21.7 51.45-21.35Q51.4-21.3 51.4-21.15L51.4-21.15Q51.5-20.95 51.6-20.9L51.6-20.9Q52.05-20.5 52.2-20L52.2-20Q52.2-19.85 52.4-19.65L52.4-19.65Q52.65-19.55 52.45-19.25L52.45-19.25 52.8-19Q52.85-18.95 52.9-18.85 52.95-18.75 53.05-18.7L53.05-18.7Q53.6-18.5 53.6-18.1L53.6-18.1 53.75-18.05Q53.95-18.15 54.25-18L54.25-18Q54.3-18 54.42-17.88 54.55-17.75 54.7-17.9L54.7-17.9Q54.85-18.1 55.1-18.18 55.35-18.25 55.4-18.3L55.4-18.3Q56.25-18.55 57-18.6L57-18.6Q58.45-18.9 58.95-18.95L58.95-18.95 60.85-19.1 62.15-19.25Q62.3-19.25 62.52-19.28 62.75-19.3 63.1-19.4L63.1-19.4Q63.4-19.45 63.83-19.5 64.25-19.55 64.8-19.7L64.8-19.7 65.1-19.7Q66.1-19.9 66.55-19.95L66.55-19.95Q66.75-20 67.05-20L67.05-20Q67.8-20 68.55-20.2 69.3-20.4 69.45-20.45L69.45-20.45 69.55-20.5 69.8-20.7Q70.1-20.85 70.2-21.1L70.2-21.1Q70.3-21.35 70.45-21.35L70.45-21.35 70.55-21.55Q70.65-21.8 70.8-21.85L70.8-21.85Q71.3-22.1 71.4-22.2L71.4-22.2Q71.55-22.3 71.58-22.5 71.6-22.7 71.4-22.8L71.4-22.8Q71.2-23 71.2-23L71.2-23ZM75.7-12.45Q75.2-12.45 74.8-11.95L74.8-11.95Q74.55-11.6 74.55-11.5L74.55-11.5Q74.55-11.3 74.85-11L74.85-11Q75.1-10.8 75.2-10.7L75.2-10.7Q75.75-9.9 75.9-9.7L75.9-9.7Q76.1-9.4 76.42-9.08 76.75-8.75 77.05-8.3L77.05-8.3Q77.15-8.2 77.1-8.1 77.05-8 76.95-7.95L76.95-7.95 76.4-7.8Q76.15-7.7 75.67-7.5 75.2-7.3 74.8-7.25L74.8-7.25 74-7.05Q73.8-7 73.4-7L73.4-7Q73.3-7 73.3-7.1L73.3-7.1Q73.25-7.2 73.2-7.33 73.15-7.45 73.05-7.55L73.05-7.55 72.85-7.9Q72.8-7.9 72.72-7.88 72.65-7.85 72.65-7.8L72.65-7.8Q72.65-7.65 72.47-7.55 72.3-7.45 72.25-7.35L72.25-7.35Q72.2-7.25 72.1-7.23 72-7.2 71.95-7.15L71.95-7.15 71.45-6.85 71.45-6.8Q71.45-6.25 71.4-6L71.4-6Q71.4-5.75 71.15-4.75L71.15-4.75 71.15-4.65Q71.15-4.45 71.3-4.28 71.45-4.1 71.65-4.1L71.65-4.1Q71.85-4 72.55-3.9L72.55-3.9Q72.95-3.8 73.15-3.8L73.15-3.8 73.8-3.95Q74.3-4.05 75.1-4.15L75.1-4.15Q76.55-4.55 77.65-5.2L77.65-5.2Q78-5.55 78.4-5.75L78.4-5.75 78.95-6.2Q79.1-6.2 79.15-6.15L79.15-6.15Q79.25-6.05 79.4-5.95 79.55-5.85 79.7-5.65L79.7-5.65Q80.35-5.05 80.65-4.75L80.65-4.75Q81.55-3.85 83.05-3.1L83.05-3.1 84.7-2.2Q84.9-2.15 85.05-2.05 85.2-1.95 85.35-1.9L85.35-1.9 88.05-0.9 90.15-0.25Q90.35-0.15 90.58-0.08 90.8 0 91 0.1L91 0.1Q91.4 0.3 91.65 0.25L91.65 0.25 91.75 0.25Q91.95 0.3 92.2 0.38 92.45 0.45 92.6 0.45L92.6 0.45Q92.75 0.45 93.2 0.53 93.65 0.6 94 0.5L94 0.5 94.4 0.35Q95.45 0.1 95.55 0.05L95.55 0.05 96.6-0.45Q96.7-0.5 97-0.63 97.3-0.75 97.45-1L97.45-1Q97.55-1.15 97.68-1.3 97.8-1.45 97.9-1.7L97.9-1.7Q97.9-1.75 97.93-1.78 97.95-1.8 97.9-1.8L97.9-1.8Q97.85-2.1 98.05-2.15L98.05-2.15Q98.2-2.2 98.28-2.33 98.35-2.45 98.3-2.6L98.3-2.6Q98.25-2.7 98.25-2.85L98.25-2.85Q98.25-3.15 98.4-3.35L98.4-3.35 98.4-3.55 98.4-3.75Q98.4-4.05 98.55-4.35L98.55-4.35 98.6-4.4Q98.6-4.55 98.55-4.6L98.55-4.6Q98.45-4.7 98.4-4.93 98.35-5.15 98.4-5.3L98.4-5.3 98.65-5.9 98.65-5.95Q98.7-6.1 98.7-6.5L98.7-6.5Q98.7-6.65 98.6-6.75L98.6-6.75Q98.55-6.75 98.4-6.75 98.25-6.75 98.15-6.6L98.15-6.6 97.85-6.35Q97.55-6.05 97.55-6.05L97.55-6.05Q97.4-5.65 96.7-5.25L96.7-5.25Q96.5-5.15 95.85-5L95.85-5Q95.65-4.95 95.33-4.98 95-5 94.85-5L94.85-5Q93.95-4.9 93.6-4.9L93.6-4.9Q93.35-4.9 93-4.88 92.65-4.85 92.2-4.9L92.2-4.9Q91.65-4.9 90.75-5.1L90.75-5.1 90-5.25Q89.8-5.3 89.55-5.4 89.3-5.5 89.15-5.5L89.15-5.5 89-5.55Q88.9-5.55 88.2-5.85L88.2-5.85Q88.1-5.85 87.88-5.9 87.65-5.95 87.45-6.05L87.45-6.05Q87.4-6.1 87.2-6.15 87-6.2 86.9-6.2L86.9-6.2 86.7-6.3 86.55-6.35Q86.3-6.45 85.93-6.53 85.55-6.6 85.3-6.75L85.3-6.75Q85.05-6.85 84.25-7.3L84.25-7.3Q83.9-7.5 83.6-7.75 83.3-8 83-8.2L83-8.2Q82.6-8.6 82-9.05L82-9.05Q81.85-9.2 81.95-9.35L81.95-9.35 82.65-10.05Q83.1-10.6 83.15-10.7L83.15-10.7Q83.2-10.75 83.65-11.35L83.65-11.35Q83.95-11.65 84-11.85L84-11.85Q84.2-12.1 84.38-12.38 84.55-12.65 84.8-12.9L84.8-12.9Q84.8-13 84.9-13.1L84.9-13.1Q84.9-13.25 84.97-13.38 85.05-13.5 85.1-13.6L85.1-13.6 85.4-14.1Q85.7-14.7 85.8-14.8L85.8-14.8Q86-15.15 86.2-15.43 86.4-15.7 86.55-15.95L86.55-15.95Q86.75-16.15 86.95-16.57 87.15-17 87.3-17.2L87.3-17.2Q87.4-17.3 87.4-17.3L87.4-17.3Q87.65-17.4 87.7-17.55L87.7-17.55 87.95-18Q87.6-18.4 87.05-18.4L87.05-18.4Q86.3-18.5 85.7-18.85L85.7-18.85 85.45-18.75 82.8-18.3Q82.5-18.25 81.45-18.1L81.45-18.1Q81.1-18 80.9-18.2L80.9-18.2Q81.05-18.3 81.05-18.3L81.05-18.3Q81.2-18.45 81.2-18.55L81.2-18.55 81.25-18.9Q81.25-20.05 81.8-21.25L81.8-21.25Q82.05-21.7 82.05-21.8L82.05-21.8Q82.05-21.9 82.1-22.1 82.15-22.3 82.2-22.45L82.2-22.45Q82.25-22.75 82.45-23L82.45-23Q82.55-23.4 82.9-23.35L82.9-23.35Q83-23.3 83.05-23.35L83.05-23.35Q83.95-23.45 84.35-23.55L84.35-23.55Q84.6-23.55 84.9-23.65L84.9-23.65Q85.95-23.95 87.55-24.15L87.55-24.15Q88.55-24.35 89.05-24.4L89.05-24.4Q89.1-24.4 89.25-24.55L89.25-24.55Q89.25-24.6 89.3-24.75 89.35-24.9 89.4-24.95L89.4-24.95Q89.9-25.35 90.15-25.45L90.15-25.45Q90.1-25.45 90.6-25.55L90.6-25.55Q90.85-25.65 90.7-25.85L90.7-25.85Q90.55-26.05 90.8-26.2L90.8-26.2Q91-26.3 91-26.35L91-26.35Q91-26.45 90.97-26.63 90.95-26.8 90.8-26.85L90.8-26.85Q90.75-26.9 90.68-27.03 90.6-27.15 90.45-27.2L90.45-27.2Q90.45-27.3 90.35-27.2L90.35-27.2 90.2-27.2Q90-27.2 89.5-27.45L89.5-27.45 89.2-27.55Q89.1-27.6 89-27.6 88.9-27.6 88.8-27.65L88.8-27.65Q88.7-27.75 88.4-27.85L88.4-27.85 88.3-27.75Q88.2-27.75 88.1-27.68 88-27.6 87.85-27.55L87.85-27.55Q87.8-27.5 87.65-27.5L87.65-27.5Q87.35-27.5 87.3-27.45L87.3-27.45Q86.7-27.25 86.55-27.25L86.55-27.25 85.15-27 83.05-26.7Q82.85-26.65 82.8-26.68 82.75-26.7 82.75-26.95L82.75-26.95Q82.85-27.25 82.85-27.4L82.85-27.4Q82.85-28.05 82.95-29.65L82.95-29.65 82.95-29.95Q82.95-30.6 82.7-31.35L82.7-31.35Q82.7-31.35 82.6-31.45L82.6-31.45 82.45-31.7Q82.4-31.8 82.35-31.95 82.3-32.1 82.2-32.15L82.2-32.15Q82-32.35 81.85-32.4L81.85-32.4Q81.7-32.45 81.42-32.52 81.15-32.6 81-32.7L81-32.7Q80.9-32.75 80.78-32.7 80.65-32.65 80.6-32.55L80.6-32.55Q80.5-32.2 80.25-32.15L80.25-32.15Q80.15-32.1 80.03-31.95 79.9-31.8 79.9-31.65L79.9-31.65 79.7-31.6Q79.6-31.5 79.6-31.35L79.6-31.35Q79.6-31 79.8-30.8L79.8-30.8Q79.9-30.6 79.9-30.55L79.9-30.55 79.9-29.35 79.85-28.35 79.8-27.55 79.8-26.6Q79.8-26.45 79.85-26.4L79.85-26.4Q80-26.2 79.7-26.2L79.7-26.2 78.15-25.9Q77.35-25.8 76.85-25.7L76.85-25.7 76.25-25.6 74.8-25.35Q74.45-25.35 74-25.2L74-25.2Q73.9-25.2 73.7-25.1L73.7-25.1Q73.8-25 73.8-24.85L73.8-24.85Q73.85-24.8 73.85-24.73 73.85-24.65 73.8-24.6L73.8-24.6 73.3-24.35 72.95-23.85 72.95-23.8Q73.2-23.55 73.25-23.55L73.25-23.55Q73.75-23.45 74.45-22.95L74.45-22.95Q74.6-22.95 75-22.85L75-22.85Q75.1-22.85 75.25-22.83 75.4-22.8 75.6-22.7L75.6-22.7Q75.75-22.6 75.95-22.6L75.95-22.6 76.7-22.75 79.1-23.15Q79.2-23.2 79.6-23.2L79.6-23.2Q79.55-23 79.5-22.95L79.5-22.95Q79.5-22.45 79.45-22.2L79.45-22.2Q79.35-21.7 79.35-21.5L79.35-21.5Q79.3-20.95 79.3-19.7L79.3-19.7 79.25-18.8 79.15-17.7 79.3-17.6Q79.25-17.55 79.22-17.53 79.2-17.5 79.15-17.5L79.15-17.5Q78.3-17.15 77.5-17.15L77.5-17.15Q77.25-17.15 77.13-17.2 77-17.25 76.95-17.5L76.95-17.5Q76.8-17.4 76.65-17.3 76.5-17.2 76.4-17.15L76.4-17.15Q76.05-17 75.8-16.35L75.8-16.35 75.8-16.25Q75.8-16.05 76.05-15.95L76.05-15.95Q76.25-15.85 76.25-15.75L76.25-15.75 76.55-15.15 76.95-14.45Q77-14.35 77.15-14.35L77.15-14.35Q77.5-14.45 77.75-14.3L77.75-14.3Q77.85-14.2 77.95-14.3L77.95-14.3Q78.15-14.4 78.55-14.3L78.55-14.3 78.7-14.35Q79.65-14.75 80.25-14.85L80.25-14.85Q80.85-15 83.25-15.6L83.25-15.6 83.45-15.6Q83.45-15.35 83.4-15.25L83.4-15.25Q83-14.65 82.85-14.3L82.85-14.3Q82.75-14.2 82.7-14.1 82.65-14 82.6-13.9L82.6-13.9Q82.3-13.45 82.15-13.3L82.15-13.3Q81.7-12.7 81.65-12.65L81.65-12.65Q81.3-12.15 80.8-11.65L80.8-11.65 80.65-11.5 80.35-11.15Q80.35-11.15 80.05-10.7L80.05-10.7Q79.9-10.5 79.8-10.5 79.7-10.5 79.55-10.6L79.55-10.6 78.9-11Q78.7-11.15 78.4-11.28 78.1-11.4 77.8-11.6L77.8-11.6Q77.6-11.7 77.08-11.98 76.55-12.25 76.05-12.3L76.05-12.3 75.7-12.45ZM52.6-1.35Q52.6-1.05 52.7-0.9L52.7-0.9Q52.7-0.85 52.95-0.5L52.95-0.5Q52.95-0.5 52.95-0.45 52.95-0.4 52.95-0.4L52.95-0.4Q53.05-0.15 53.05 0.05 53.05 0.25 53.1 0.35L53.1 0.35 53.35 0.9 53.5 1Q53.7 1.15 53.9 1.25 54.1 1.35 54.25 1.45L54.25 1.45Q54.25 1.45 54.27 1.48 54.3 1.5 54.3 1.5L54.3 1.5Q54.55 1.7 54.73 1.75 54.9 1.8 55.15 1.6L55.15 1.6Q55.2 1.55 55.5 1.4L55.5 1.4Q56.5 1.1 57.05 1L57.05 1Q57.75 0.8 58.7 0.7L58.7 0.7 60.3 0.6Q61.85 0.5 63.25 0.15L63.25 0.15Q63.6 0.05 63.95-0.1 64.3-0.25 64.7-0.35L64.7-0.35 65.15-0.5Q65.35-0.55 65.63-0.65 65.9-0.75 66.1-0.8L66.1-0.8Q66.45-0.85 66.85-1.35L66.85-1.35Q66.9-1.4 67.05-1.7L67.05-1.7Q67.15-2.2 67.3-2.3L67.3-2.3Q67.45-2.45 67.45-2.7L67.45-2.7Q67.45-3.1 67.55-3.18 67.65-3.25 67.65-3.25L67.65-3.25Q67.75-3.35 68-3.45L68-3.45Q67.8-3.55 67.72-3.75 67.65-3.95 67.63-4.1 67.6-4.25 67.6-4.35L67.6-4.35Q67.1-3.85 66.47-3.7 65.85-3.55 64.95-3.65L64.95-3.65Q65.05-3.7 65.05-3.75 65.05-3.8 65.1-3.85L65.1-3.85Q65.3-3.95 65.35-4.4L65.35-4.4Q65.45-5.1 65.45-5.4L65.45-5.4Q65.45-5.85 65.4-6.05L65.4-6.05Q65.2-7 65.15-7.65L65.15-7.65 65.15-7.8Q65.15-8 65.5-8L65.5-8 65.65-8 67.7-8.2Q67.75-8.2 67.9-8.35L67.9-8.35Q68.05-8.5 68.15-8.5L68.15-8.5Q68.3-8.6 68.42-8.6 68.55-8.6 68.6-8.65L68.6-8.65Q68.65-8.65 68.67-8.68 68.7-8.7 68.65-8.75L68.65-8.75Q68.65-8.85 68.55-9.05L68.55-9.05Q68.5-9.2 68.53-9.3 68.55-9.4 68.75-9.45L68.75-9.45 69.05-9.45Q69.3-9.5 69.2-9.75L69.2-9.75Q69.2-9.8 69.13-9.83 69.05-9.85 69-9.9L69-9.9Q68.9-10.1 68.9-10.2L68.9-10.2Q68.85-10.4 69.05-10.4L69.05-10.4Q69.25-10.4 69.45-10.5L69.45-10.5Q69.55-10.5 69.6-10.55 69.65-10.6 69.7-10.65L69.7-10.65 69.45-10.85Q69.15-10.85 68.85-10.95L68.85-10.95Q68.75-10.95 68.65-11.05L68.65-11.05 68.65-11.1Q68.7-11.1 68.78-11.08 68.85-11.05 68.9-11.1L68.9-11.1Q69-11.15 69.25-11.28 69.5-11.4 69.65-11.65L69.65-11.65Q69.7-11.75 69.9-12.03 70.1-12.3 70.35-12.4L70.35-12.4Q70.85-12.75 71.05-13.5L71.05-13.5 71.15-14.2Q71.3-14.7 71.2-15.15L71.2-15.15 71.2-15.4Q71.3-15.5 71.38-15.75 71.45-16 71.65-16.05L71.65-16.05Q71.35-16.2 71.45-16.4L71.45-16.4Q71.6-16.55 71.8-16.6L71.8-16.6Q71.9-16.7 71.9-16.9L71.9-16.9 71.85-17.1Q71.85-17.35 71.5-17.45L71.5-17.45Q71.15-17.55 70.35-17.65L70.35-17.65Q70.05-17.75 69.8-17.85L69.8-17.85Q69.65-18 69.15-18.1L69.15-18.1 69.05-18.05Q69-18 68.75-18L68.75-18Q68.7-17.95 68.65-17.98 68.6-18 68.55-18L68.55-18Q68.3-17.9 67.75-17.9L67.75-17.9Q65.75-17.65 65.15-17.65L65.15-17.65Q64.55-17.65 63.73-17.48 62.9-17.3 62.55-17.25L62.55-17.25 60.55-17 59.8-16.85 59.75-16.85 59.15-16.8Q58.75-16.7 58.7-16.7L58.7-16.7Q58.2-16.6 57.1-16.5L57.1-16.5Q56.95-16.45 56.6-16.35 56.25-16.25 55.95-16.25L55.95-16.25Q54.55-16.05 53.9-15.8L53.9-15.8Q53.8-15.75 53.55-15.75L53.55-15.75Q53.25-15.75 53.05-16L53.05-16Q52.9-16.15 52.6-16.35L52.6-16.35Q52.3-16.25 52.15-16.13 52-16 52.05-15.75L52.05-15.75Q51.85-15.75 51.75-15.8L51.75-15.8 51.8-15.65 51.55-15.45Q51.6-15.35 51.63-15.3 51.65-15.25 51.7-15.2L51.7-15.2Q51.8-14.7 51.8-14.45L51.8-14.45 51.75-13.15 51.8-12.85Q51.7-12.05 51.7-11.9L51.7-11.9 51.7-11.4Q51.7-11.05 51.75-10.85L51.75-10.85 51.75-10.8 51.75-10.25 51.75-10.1 51.75-9.75Q51.75-9.4 51.65-9.25L51.65-9.25Q51.6-9.2 51.6-9.1L51.6-9.1Q51.55-9 51.58-8.9 51.6-8.8 51.55-8.7L51.55-8.7Q51.5-8.65 51.5-8.45L51.5-8.45Q51.5-8.3 51.58-8.1 51.65-7.9 51.7-7.85L51.7-7.85Q52.05-7.65 52.45-7.2L52.45-7.2 52.6-7Q52.7-6.95 52.9-6.75 53.1-6.55 53.3-6.5L53.3-6.5Q53.6-6.35 53.85-6.3 54.1-6.25 54.3-6.2L54.3-6.2Q54.4-6.2 54.4-6.25L54.4-6.25Q54.55-6.45 54.75-6.3L54.75-6.3Q54.8-6.3 54.95-6.2 55.1-6.1 55.3-6.2L55.3-6.2Q56.25-6.5 57-6.65L57-6.65 57.15-6.6Q57.2-6.55 57.17-6.43 57.15-6.3 57.15-6.25L57.15-6.25 57.15-5.65 57.05-5.35 57-5.05 57.05-4.95Q57-4.8 57-4.5L57-4.5Q57-4.05 57.25-3.8L57.25-3.8Q57.7-3.15 57.7-2.7L57.7-2.7 57.4-2.65Q57.15-2.65 56.45-2.55L56.45-2.55Q55.9-2.4 54.45-2.2L54.45-2.2Q54.1-2.2 54.05-2.25L54.05-2.25Q53.85-2.35 53.63-2.35 53.4-2.35 53.3-2.35L53.3-2.35Q52.85-2.25 52.75-1.9L52.75-1.9Q52.6-1.6 52.6-1.35L52.6-1.35ZM57-13.1L57.4-13.3Q57.95-13.4 58.95-13.7L58.95-13.7Q59.55-13.8 60.7-13.8L60.7-13.8 61.8-13.8Q62.05-13.8 62.65-13.9L62.65-13.9Q63.05-13.9 63.35-14.05L63.35-14.05Q63.55-14.15 64.25-14.25L64.25-14.25 65.6-14.4Q66.15-14.4 67.15-14.5L67.15-14.5Q67.4-14.55 67.47-14.48 67.55-14.4 67.55-14.2L67.55-14.2Q67.6-13.6 67.55-13.1L67.55-13.1Q67.45-12.8 67.15-12.55L67.15-12.55Q66.95-12.3 66.75-12.15 66.55-12 66.45-11.9L66.45-11.9Q66.35-11.8 66.35-11.75L66.35-11.75Q66.25-11.4 65.75-11.3L65.75-11.3 64.4-11.2 61.85-10.85 59.05-10.65 57.35-10.5 55.2-10.2 54.55-10.1Q54.35-10.05 54.25-10.35L54.25-10.35Q54.25-10.7 54.2-10.85L54.2-10.85Q54-11.35 54.1-11.9L54.1-11.9 54.05-12.8Q54.05-12.95 54.2-12.95L54.2-12.95Q54.35-12.95 54.45-12.9 54.55-12.85 54.7-12.85L54.7-12.85Q54.75-12.9 54.85-12.8L54.85-12.8Q54.95-12.65 55.15-12.65 55.35-12.65 55.45-12.8L55.45-12.8Q55.65-13 56-13L56-13 56.6-13.15 57-13.1ZM62.45-5.6Q62.45-5.5 62.4-5.38 62.35-5.25 62.4-5.2L62.4-5.2 62.4-5.05Q62.4-4.75 62.25-4.6L62.25-4.6 61.8-3.9Q61.4-3.5 61.4-3.5L61.4-3.5 61.4-3.15 61-3.15 59.5-3.05Q59.35-3.05 59.35-3.2L59.35-3.2 59.45-3.4Q59.65-3.6 59.67-3.93 59.7-4.25 59.7-4.4L59.7-4.4 59.85-5.95 59.8-6.2Q59.8-6.35 59.77-6.6 59.75-6.85 59.85-7L59.85-7Q59.95-7.15 60.2-7.15L60.2-7.15 61.15-7.25Q61.45-7.25 62.15-7.35L62.15-7.35Q62.25-7.35 62.3-7.2L62.3-7.2Q62.4-6.8 62.4-6.7L62.4-6.7Q62.35-6.5 62.35-6.1L62.35-6.1Q62.35-5.75 62.45-5.6L62.45-5.6ZM114.25-13.1L114-13.45Q113.9-13.5 113.85-13.58 113.8-13.65 113.85-13.7L113.85-13.7Q113.85-13.85 113.8-13.98 113.75-14.1 113.7-14.15L113.7-14.15 112.95-15.15Q112.9-15.25 112.9-15.4L112.9-15.4 112.8-16.15Q112.75-16.55 112.5-16.75L112.5-16.75Q112.15-17.5 111.65-17.9L111.65-17.9Q111.65-17.95 111.58-17.98 111.5-18 111.5-17.95L111.5-17.95Q111.25-17.9 111.15-18.05L111.15-18.05 111-18.35Q110.85-18.65 110.55-18.5L110.55-18.5 110.3-18.5Q110.2-18.5 110.1-18.4L110.1-18.4Q109.6-17.95 109.35-17.35L109.35-17.35Q109.15-16.85 109-16.3L109-16.3Q108.8-15.4 108.75-14.95L108.75-14.95Q108.7-14.45 108.7-13.4L108.7-13.4Q108.65-13.15 108.67-12.75 108.7-12.35 108.7-12.15L108.7-12.15 108.7-11.4Q108.8-10.95 108.88-10.28 108.95-9.6 109-9.25L109-9.25Q109.1-8.8 109-8.5L109-8.5Q108.95-8.3 108.85-8.1 108.75-7.9 108.7-7.7L108.7-7.7Q108.65-7.55 108.65-7.2L108.65-7.2 108.7-7.15Q108.7-7.1 108.75-7.08 108.8-7.05 108.8-7L108.8-7Q108.95-6.85 109.08-6.65 109.2-6.45 109.3-6.3L109.3-6.3Q109.5-6.15 110.2-5.35L110.2-5.35Q110.25-5.35 110.25-5.25L110.25-5.25Q110.25-5.05 110.45-4.85 110.65-4.65 110.9-4.55L110.9-4.55 111-4.45Q111.2-3.85 111.35-3.55L111.35-3.55 111.8-2.45Q111.85-2.35 112.05-2.25L112.05-2.25Q112.1-2.25 112.2-2.15L112.2-2.15Q112.2-2.15 112.35-2L112.35-2Q112.65-1.8 112.7-1.65L112.7-1.65Q112.7-1.55 112.95-1.15L112.95-1.15Q113.05-1.05 113.28-1.05 113.5-1.05 113.55-1.25L113.55-1.25Q113.8-1.25 113.9-1.3L113.9-1.3Q114.4-1.3 114.78-1.35 115.15-1.4 115.45-1.45L115.45-1.45 115.6-1.45Q115.95-1.6 116.25-1.45L116.25-1.45 116.65-1.6Q116.75-1.45 116.88-1.45 117-1.45 117.05-1.45L117.05-1.45 117.95-1.45 119.3-1.45Q119.75-1.45 120-1.5L120-1.5Q120.55-1.5 121.55-1.6L121.55-1.6Q122.2-1.6 123.4-1.7L123.4-1.7Q123.8-1.75 124.2-1.73 124.6-1.7 125-1.75L125-1.75Q126.2-1.95 126.8-2L126.8-2Q127.1-2 127.38-2.08 127.65-2.15 127.95-2.15L127.95-2.15Q128.5-2.15 129.5-2.45L129.5-2.45 129.75-2.5Q129.9-2.55 130.3-2.55L130.3-2.55 131.45-2.65 132.85-2.75 133.25-2.8 133.35-2.8 133.75-2.75 134.8-2.9Q135.05-2.9 135.45-3L135.45-3Q135.6-3.05 135.95-3.05L135.95-3.05Q136.65-3.1 137.5-3.45L137.5-3.45 137.6-3.5Q137.75-3.65 137.8-3.65L137.8-3.65Q138.1-3.75 138.1-3.95L138.1-3.95Q138.05-3.95 137.85-3.85L137.85-3.85Q137.75-3.75 137.75-3.9L137.75-3.9Q137.7-4.05 137.95-4.15L137.95-4.15 138.15-4.25Q138.2-4.35 138.35-4.48 138.5-4.6 138.55-4.75L138.55-4.75Q138.8-5.05 139.2-5.2L139.2-5.2Q139.4-5.2 139.45-5.35L139.45-5.35Q139.55-5.45 139.55-5.5L139.55-5.5 139.35-5.6Q139.25-5.7 139.2-5.7L139.2-5.7 139.25-5.95Q139.45-6 139.85-6L139.85-6Q140.25-6 140.45-6.05L140.45-6.05 140.6-6.15Q140.6-6.35 140.85-6.45L140.85-6.45Q141.15-6.45 141.4-6.8L141.4-6.8Q142.05-7.45 142.2-8.3L142.2-8.3Q142.2-8.6 142.25-8.75L142.25-8.75 142.4-9.8 142.4-10.75 142.3-11.85 142.05-13.85 141.75-15.1 141.6-15.65 141.6-15.9 141.35-16.9 141.2-17.55Q141.15-17.65 141.07-17.9 141-18.15 140.9-18.25L140.9-18.25Q140.9-18.3 140.55-18.8L140.55-18.8Q140.5-18.95 140.4-18.95L140.4-18.95 139.85-19.3Q139.3-19.8 138.6-20.25L138.6-20.25Q138.5-20.15 138.35-20.15L138.35-20.15 137.65-20.2Q137.45-20.2 137.35-20L137.35-20Q137.35-19.65 137.3-19.5L137.3-19.5Q137.2-19.25 137.18-18.95 137.15-18.65 137.15-18.5L137.15-18.5Q137.05-17.95 137.15-17.5L137.15-17.5Q137.15-17.15 137.13-16.75 137.1-16.35 137.15-16.05L137.15-16.05Q137.15-15.85 137.18-15.5 137.2-15.15 137.3-14.9L137.3-14.9Q137.35-14.85 137.32-14.8 137.3-14.75 137.3-14.7L137.3-14.7 137.25-14.5Q137.35-13.95 137.38-13.55 137.4-13.15 137.4-12.9L137.4-12.9Q137.5-12 137.5-11.6L137.5-11.6 137.5-11.45Q137.5-11.45 137.47-11.35 137.45-11.25 137.5-11.2L137.5-11.2 137.5-10.7Q137.5-10.35 137.35-9.95L137.35-9.95Q137.35-9.75 137.3-9.65L137.3-9.65 137.25-9.45Q137.35-9.25 137.15-9.3L137.15-9.3 136.75-9.35Q135.85-9.35 135.4-9.3L135.4-9.3Q135.2-9.3 134.82-9.28 134.45-9.25 134.15-9.1L134.15-9.1 134-9.1Q133.95-9.1 133.9-9.13 133.85-9.15 133.8-9.1L133.8-9.1 133.25-9.1 132.25-9 131.1-8.95Q130.6-8.85 130.3-8.85L130.3-8.85 128-8.65 126.4-8.4Q126.35-8.4 126.2-8.38 126.05-8.35 126-8.2L126-8.2 125.8-8.3Q125.55-8.3 125.05-8.2L125.05-8.2 122.7-7.95Q122.2-7.9 121.2-7.9L121.2-7.9Q121.05-7.85 120.9-7.88 120.75-7.9 120.65-7.9L120.65-7.9Q120.65-8.15 120.7-8.2L120.7-8.2Q120.85-8.4 120.95-8.85L120.95-8.85Q121-9 121.08-9.15 121.15-9.3 121.2-9.45L121.2-9.45Q121.3-9.8 121.4-10.5L121.4-10.5 121.4-10.75Q121.5-11.15 121.5-11.25L121.5-11.25Q121.5-11.4 121.53-11.68 121.55-11.95 121.65-12.15L121.65-12.15 121.65-12.25Q121.65-12.35 121.75-12.75L121.75-12.75Q121.8-12.95 121.85-13.2 121.9-13.45 121.95-13.8L121.95-13.8 122.1-14.25Q122.15-14.55 122.2-14.85 122.25-15.15 122.35-15.45L122.35-15.45 122.65-16.85 122.95-17.8Q123.05-18.4 123.1-18.45L123.1-18.45 123.4-19.15 123.85-20.4 124.1-21Q124.15-21.1 124.3-21.35L124.3-21.35 124.35-21.25Q124.45-21.05 124.58-20.8 124.7-20.55 124.8-20.25L124.8-20.25Q124.95-19.85 125.15-19.38 125.35-18.9 125.45-18.6L125.45-18.6Q125.6-18.15 125.78-17.63 125.95-17.1 126.15-16.55L126.15-16.55 126.45-15.45Q126.65-14.4 126.8-13.75L126.8-13.75 127-13.15Q127-12.55 127.2-12.1L127.2-12.1Q127.5-11.2 127.6-10.75L127.6-10.75Q127.65-10.6 127.63-10.53 127.6-10.45 127.45-10.4L127.45-10.4 127.4-10Q127.8-9.9 127.95-9.9L127.95-9.9Q128.1-9.85 128.45-9.85L128.45-9.85Q128.25-9.55 128.2-9.4L128.2-9.4 128.3-9.35Q128.45-9.15 128.65-9.2L128.65-9.2Q128.7-9.25 128.72-9.18 128.75-9.1 128.8-9.1L128.8-9.1 129-9Q129.05-9 129.13-9.05 129.2-9.1 129.25-9.1L129.25-9.1Q129.45-9.6 129.8-9.8L129.8-9.8Q130.15-9.7 130.2-9.75L130.2-9.75Q130.55-9.85 130.65-10.1L130.65-10.1Q130.7-10.2 130.85-10.48 131-10.75 131-11.05L131-11.05 131.05-11.95Q131.05-12.15 131.1-12.3L131.1-12.3Q131.2-12.5 131.2-12.6L131.2-12.6Q131.2-12.8 131.18-13.08 131.15-13.35 131.2-13.55L131.2-13.55 131.2-13.8Q131.2-14.3 131-15.1L131-15.1Q130.4-17.2 130.45-17.05L130.45-17.05 130.15-17.95Q130.05-18.15 129.97-18.43 129.9-18.7 129.75-18.95L129.75-18.95Q129.7-19.1 129.6-19.28 129.5-19.45 129.45-19.6L129.45-19.6Q129.35-19.85 129.2-20.28 129.05-20.7 128.9-20.95L128.9-20.95 128.45-22 127.7-23.5Q127.6-23.65 127.5-23.8 127.4-23.95 127.3-24.1L127.3-24.1Q126.9-24.9 126.65-25.2L126.65-25.2Q126.6-25.35 126.65-25.4L126.65-25.4Q126.8-25.55 126.65-25.65L126.65-25.65Q126.6-25.65 126.35-25.9L126.35-25.9Q126.35-25.95 126.33-25.98 126.3-26 126.35-26L126.35-26Q126.65-26.6 126.75-26.9L126.75-26.9Q127.05-27.4 127.45-27.45L127.45-27.45 127.5-27.55Q127.5-27.65 127.4-28.05L127.4-28.05Q127.4-28.15 127.1-28.85L127.1-28.85Q127.05-28.95 126.95-29L126.95-29Q126.75-29.05 126.65-29.4L126.65-29.4Q126.65-29.85 126.35-29.9L126.35-29.9 126.35-29.95Q126.25-29.95 126.17-30 126.1-30.05 126.05-30.1L126.05-30.1Q126-30.15 125.95-30.15 125.9-30.15 125.9-30.2L125.9-30.2Q125.75-30.5 125.4-30.8L125.4-30.8Q125.2-30.9 124.85-31.25L124.85-31.25Q124.7-31.4 124.15-31.65L124.15-31.65 124-31.7Q123.9-31.7 123.78-31.63 123.65-31.55 123.55-31.55L123.55-31.55 123.55-31.45Q123.45-31.15 123.45-31L123.45-31Q123.45-30.75 123.55-30.25L123.55-30.25Q123.55-29.95 123.5-29.85L123.5-29.85 123-28.65Q122.9-28.45 122.8-28.13 122.7-27.8 122.5-27.65L122.5-27.65 122.5-27.6 122.35-27.35Q122.2-27.1 122.25-27L122.25-27Q122.35-26.95 122.2-26.8L122.2-26.8Q122-26.2 121.5-25L121.5-25 121.05-23.95Q121-23.75 120.88-23.35 120.75-22.95 120.6-22.65L120.6-22.65Q120.1-21 119.75-19.75L119.75-19.75 119.45-18.5 119.15-17.4 118.7-15.05 118.4-13.25Q118.35-12.8 118.3-12.08 118.25-11.35 118.1-10.4L118.1-10.4Q118.1-10.05 117.95-9.8L117.95-9.8Q117.9-9.6 117.92-9.35 117.95-9.1 117.95-8.95L117.95-8.95 118.05-8.85Q118.15-8.75 118.15-8.65L118.15-8.65Q118.25-8.05 118.25-7.75L118.25-7.75Q118.35-7.6 118.15-7.6L118.15-7.6 117.05-7.6 115.35-7.55 114.45-7.55Q114.3-7.55 114.3-7.7L114.3-7.7 114.15-9.25Q114.15-10 114.1-10.4L114.1-10.4Q114.05-10.7 114.05-11.45L114.05-11.45Q114-11.8 114-12.55L114-12.55 114-12.7Q114-13.05 114.25-13.1L114.25-13.1Z" transform="translate(-2, 35.46666717529297)"></path>
          </g>
          <!---->
          <!---->
          <!---->
          <!---->
          <!---->
          <!---->
          <!---->
        </g>
      </g>
      <!---->
    </g>
  </g>
  <defs v-gra="od"></defs>
</svg>